HIERARCHY
ROOT Hips
{
  OFFSET 0.0 0.0 0.0
  CHANNELS 6 XPOSITION YPOSITION ZPOSITION ZROTATION XROTATION YROTATION 
  JOINT LeftUpLeg
  {
    OFFSET 0.089458 -0.0866707 0.00101652
    CHANNELS 3 ZROTATION XROTATION YROTATION 
    JOINT LeftLeg
    {
      OFFSET 0.0 -0.444227 0.013727
      CHANNELS 3 ZROTATION XROTATION YROTATION 
      JOINT LeftFoot
      {
        OFFSET -0.00253549 -0.420924 -0.0146059
        CHANNELS 3 ZROTATION XROTATION YROTATION 
        End Site
        {
          OFFSET -0.0004 -0.0441509 0.084991
        }
      }
    }
  }
  JOINT Spine
  {
    OFFSET 0.0 0.118905 0.0
    CHANNELS 3 ZROTATION XROTATION YROTATION 
    JOINT Spine1
    {
      OFFSET 0.0 0.256574 0.00127663
      CHANNELS 3 ZROTATION XROTATION YROTATION 
      End Site
      {
        OFFSET -0.0029 0.2150836 0.02525291
      }
      JOINT RightArm
      {
        OFFSET -0.162727 -0.05365632 0.00102123
        CHANNELS 3 ZROTATION XROTATION YROTATION 
        JOINT RightForeArm
        {
          OFFSET -0.26364 0.00099144 -0.0142434
          CHANNELS 3 ZROTATION XROTATION YROTATION 
          End Site
          {
            OFFSET -0.220324 0.00085362 0.0102216
          }
        }
      }
      JOINT LeftArm
      {
        OFFSET 0.162727 -0.0536563199 0.00102123
        CHANNELS 3 ZROTATION XROTATION YROTATION 
        JOINT LeftForeArm
        {
          OFFSET 0.262597 0.00099144 -0.0142434
          CHANNELS 3 ZROTATION XROTATION YROTATION 
          End Site
          {
            OFFSET 0.220902 0.00085362 0.0102216
          }
        }
      }
    }
  }
  JOINT RightUpLeg
  {
    OFFSET -0.089458 -0.0866707 0.00101652
    CHANNELS 3 ZROTATION XROTATION YROTATION 
    JOINT RightLeg
    {
      OFFSET 0.0 -0.444227 0.013727
      CHANNELS 3 ZROTATION XROTATION YROTATION 
      JOINT RightFoot
      {
        OFFSET 0.00253549 -0.420924 -0.0146059
        CHANNELS 3 ZROTATION XROTATION YROTATION 
        End Site
        {
          OFFSET 0.0004 -0.0441509 0.084991
        }
      }
    }
  }
}
MOTION
Frames: 13
Frame Time: 0.033333
-31.075408 0.908961725114 -0.68164825 -8.09814292621 1.01788676359 -92.7532107778 -1.66908094776 -19.9193622048 -3.59856115008 0.481179516591 10.7104392743 24.3229798231 -5.55534546049 -36.6214969898 -0.237659820585 7.11716767884 12.2384891954 1.30370136549 -7.08072520452 1.42326692184 3.31490061908 76.9249850367 -6.12956757486 17.6944297903 8.17899870561 28.8754340936 12.0874950572 -72.5192534749 -12.8336437052 6.49779118386 -6.45487966663 39.2724095199 -10.5801696376 3.91198743203 18.6292094801 -8.93058503791 0.43095126593 16.5761656061 -10.2433362973 5.56766498732 -50.9267681309 0.898712982617 
-31.114468 0.903697225114 -0.6796953 -7.8340587846 0.951738195743 -93.8417175352 -2.17152716546 -19.6756576402 -3.31006420482 0.705218846073 14.4269338857 26.2330131962 -3.20271903083 -34.5085164984 -0.0582470394889 6.93046531165 11.6617975408 1.69801725762 -7.58949788495 1.6353262596 3.7980103578 77.7277849812 -9.00003781649 16.3999433105 8.92412965537 31.973853788 10.0931370224 -71.7736153835 -14.2269800977 6.76467612993 -7.04510064536 40.3046935752 -9.51152336267 2.95628089638 20.3057272232 -9.49783054094 -0.238990853699 17.4378947152 -8.32611415014 7.59451722021 -51.2579230226 1.41121398583 
-31.154997 0.900384725114 -0.67814332 -7.7245059654 -0.115638037495 -94.8612052311 -3.48360821257 -19.4651819458 -2.71586634844 0.706430457599 18.0620288638 25.7894829096 -0.616837638956 -29.7873565554 0.04234911052 5.00314601043 11.1954228327 2.21391019681 -7.358339524 1.55255141049 4.11711338073 78.2585999627 -11.8686387207 14.5405387146 9.48790798362 35.2878752336 8.15454577461 -70.9809651002 -15.6858589856 7.47174542366 -7.6591231258 41.0007274177 -8.48315129822 0.884664617516 21.9668736255 -9.26175273624 -0.856092068588 18.5080009431 -6.90005901701 10.0781106062 -50.7625806286 1.94631042876 
-31.195246 0.898403225114 -0.67693656 -7.74869849544 -1.88564959775 -94.8948234222 -5.59963752971 -19.7186622187 -1.42999978082 0.905565690067 22.296735904 23.3675285658 1.10063738687 -26.5752551925 -0.0301041788288 1.77115332243 11.0821091406 2.44895941771 -6.39904244328 0.887428122726 3.88521607869 78.5938119868 -14.7188356802 12.1746269267 9.84453350453 37.8205571892 6.35670722326 -70.0060717094 -18.0551457407 8.13552967418 -8.79559317916 42.3550002509 -6.67150338503 -1.88816758968 22.8214037153 -8.1857213193 -0.75992401893 21.1430076701 -6.87668610967 14.4629016618 -49.6059119983 2.75995201789 
-31.232386 0.896334225114 -0.67254786 -7.8933900766 -3.08791016763 -94.7274974479 -7.4784697449 -19.0637000113 -0.992834056597 1.16322998747 25.7311991979 22.018900884 1.9857050389 -27.4942451925 -0.0455507183378 -0.200204997507 11.4440997751 2.6469000074 -5.93694983696 0.341160985451 3.74986008548 78.5885185902 -19.7268003891 8.9600760872 11.497200227 42.7039033891 2.02028991521 -69.4069684965 -19.1695833113 9.06129266051 -9.28797041737 42.8537987207 -5.76725976345 -4.21445040659 22.2169012379 -5.87932011584 -0.741109996057 26.4639009109 -7.65569010197 19.7396530976 -47.1841864658 3.32615058097 
-31.267165 0.897118225114 -0.66740916 -8.1285995935 -3.72386993502 -95.0407982252 -8.68584057693 -17.5922006414 -0.615329020923 1.19847995345 27.8507998502 22.308398452 2.4973327384 -30.828424234 0.0436029705011 -1.21101996732 11.6587999415 2.83484013294 -5.91138017003 0.0604463003706 3.74319979726 77.8866005398 -22.1534334125 5.41854872424 12.5473990148 45.3501987114 -1.31326992691 -69.2272252383 -19.412114791 8.85545978723 -9.30092045603 42.8753001562 -5.68628018688 -6.06599046652 19.160599905 -3.28017977932 -0.779277946913 35.7618015696 -8.37785027178 21.5789000977 -41.325694158 2.24192379081 
-31.299205 0.901045225114 -0.66226476 -8.32299019237 -4.03220986048 -95.8866010407 -9.45250028296 -15.3290994222 -0.0813484001184 1.22171006715 28.0704006773 22.8892018805 2.67002510694 -33.6458533609 0.141202675166 -1.86956001995 12.0333000675 2.96909006239 -5.88960979583 -0.22376199979 3.71458002398 76.9449155287 -22.96049198 2.45398302184 13.1881996787 46.5837991774 -3.11970000246 -69.4039495529 -19.2110408521 8.29565321399 -8.72952988196 42.2961991523 -6.59806006843 -7.2888099058 13.7483998416 -0.790570010519 -1.01972995417 47.0699993632 -10.0238993948 19.1661716319 -32.4924051649 0.189586641349 
-31.328287 0.905228225114 -0.65814856 -8.58817997086 -4.23476979249 -96.8192019001 -9.98603026469 -13.0254004123 0.667248970703 1.20437003111 27.7151010669 23.0322004285 2.18815782232 -35.1687259987 0.173247814998 -2.93772007075 12.6583998341 2.94987994191 -5.44397965296 -0.494669993975 3.35443012546 76.0308176517 -22.7511791253 0.186281323379 13.2503006124 46.868300462 -3.15039999523 -69.8099223368 -18.0400715132 7.54637719317 -7.6448198559 40.6749991113 -8.54297009497 -7.6948697746 7.44740006813 1.35815003273 -1.38112999075 57.8848013667 -11.7904996491 15.8431445818 -26.0166208505 -0.89148002573 
-31.355706 0.909443225114 -0.65492666 -8.98743953256 -4.05928985299 -97.2533970257 -10.0485000286 -10.5169007415 1.3752999974 1.04720001451 27.1980011052 22.9549014701 1.50130204655 -36.4605299217 0.171492549763 -3.88784997039 13.3838999664 2.58704983447 -4.54934994952 -0.59325603732 2.59094987249 75.2102523852 -22.1369794868 -1.53853959758 12.5213998997 46.2443012096 -1.42193994415 -70.2769706722 -16.0187589906 6.2401167479 -6.57585981919 38.6757002884 -10.6139005268 -7.21575932508 1.59277994404 2.58272995326 -1.95909995798 66.5854993126 -12.6047008868 14.0975719186 -25.2735099292 -0.900171868335 
-31.382366 0.913806225114 -0.65211486 -9.41953010606 -3.47280007854 -97.1790982279 -9.66525982183 -7.71340007781 1.85173984296 0.748277959426 26.3581986109 22.9070013535 1.2291872033 -38.0163104108 0.188022741473 -4.37663026023 13.9789007969 1.97263013584 -3.45122991425 -0.442165022484 1.61992002088 74.5286609777 -21.4328604079 -2.835239699 11.260199493 44.5965009968 1.41955994339 -70.6417027739 -13.7734845651 4.36180448086 -5.58083017694 36.9499027304 -12.4691002874 -6.2130102884 -3.69690007931 2.9357600199 -2.72391999525 72.5962980087 -12.7676000447 13.6826934218 -27.8688708232 -0.546744636868 
-31.408531 0.917612225114 -0.64982086 -9.73890975165 -2.85740003432 -96.9119968502 -9.18514960337 -4.95812994116 2.06629999045 0.30679101998 25.2442015874 22.8307986405 1.21321203116 -39.3500858463 0.214684905166 -4.84238000596 14.3817009579 1.34380001873 -2.30913989587 -0.311425997023 0.635798030648 74.1630887628 -20.0136119852 -3.71742180956 9.92571969432 41.7105992234 4.50078986585 -70.8235292398 -11.3141272516 2.45218838964 -4.30730981657 34.8030991422 -14.6476002223 -5.13153008805 -8.77174045103 2.97353993064 -3.44625006602 75.8790986597 -12.8508993243 13.214703374 -30.1180299188 -0.255779645442 
-31.434517 0.920956225114 -0.64805546 -9.9221697035 -2.2799399834 -96.6273009052 -8.65096050839 -2.30542982249 2.27351000062 -0.154626998433 23.9116999823 22.493298503 1.03825417425 -40.2903843289 0.216643955499 -5.25020974752 14.7477000597 0.761724040581 -1.16308004348 -0.523864036757 -0.224266006385 74.1720431408 -17.9953098685 -4.16100801832 8.8554802778 38.4815999726 7.05981970302 -70.7559991595 -8.23119415747 0.901592227518 -2.68977993501 31.3600998193 -17.5271004009 -3.94038010152 -13.589599651 3.11121989572 -3.6838898496 76.5245993476 -13.1300995283 12.1673903412 -31.3078147212 -0.113582377339 
-31.459989 0.923539225114 -0.64659956 -10.0679003272 -1.63789996026 -96.4121977577 -8.03228026582 0.256049011028 2.68141017852 -0.465983999874 22.6942990174 21.9519001433 0.707600074133 -41.3217053276 0.198870976185 -5.33097972267 15.241299048 0.279440994872 -0.145599996311 -0.943607922754 -0.847652035847 74.3807190803 -16.4556827767 -4.1181963926 8.12828967366 36.1385001627 8.76742035638 -70.373508566 -5.3396446714 -0.446225596626 -1.07781004089 27.6830999231 -20.7965992584 -2.60977003186 -17.7929996653 3.41851992488 -3.26197006811 74.6423016651 -13.6377994422 11.7632113358 -32.8313123213 0.0577023185623 
